# xmcd
#
# Track frame offsets: 
#        150
#        20012
#        31284
#        48763
#        63064
#        79479
#        85596
#        108407
#        129007
#        140527
#        155009
#        172886
#
# Disc length: 3360 seconds
#
# Revision: 2
# Processed by: cddbd v1.5.2PL0 Copyright (c) Steve Scherf et al.
# Submitted via: ExactAudioCopyFreeDBPlugin 1.0
#
DISCID=8c0d1e0c
DTITLE=Moriarty - Gee Whiz But This Is A Lonesome Town
DYEAR=2008
DGENRE=Blues
TTITLE0=Jimmy
TTITLE1=Lovelinesse
TTITLE2=Private Lily
TTITLE3=Motel
TTITLE4=Animals can't laugh
TTITLE5=(...)
TTITLE6=Cottonflower
TTITLE7=Whiteman's ballad
TTITLE8=Tagono-Ura
TTITLE9=Fireday
TTITLE10=Oshkosh Bend
TTITLE11=Jaywalker (Song for Beryl)
EXTD=
EXTT0=
EXTT1=
EXTT2=
EXTT3=
EXTT4=
EXTT5=
EXTT6=
EXTT7=
EXTT8=
EXTT9=
EXTT10=
EXTT11=
PLAYORDER=
